<svg width="26" height="24" viewBox="0 0 26 24" fill="none" xmlns="http://www.w3.org/2000/svg">
<path fill-rule="evenodd" clip-rule="evenodd" d="M0.874512 0.0490723H5.25282H6.27757L6.47855 1.01373L7.05021 3.75776H24.0538H25.5293L25.2868 5.15504L23.999 12.5724L23.8249 13.5751H22.766H9.0955L9.62569 16.12H22.766V18.52H8.60092H7.57617L7.3752 17.5554L4.79972 5.19309L6.02546 4.95776L4.79972 5.19309L4.22806 2.44907H0.874512V0.0490723ZM7.55021 6.15776L8.5955 11.1751H21.7072L22.5782 6.15776H7.55021ZM11.9697 21.5067C11.9697 22.6112 11.0394 23.5042 9.8889 23.5042C8.73835 23.5042 7.80811 22.6112 7.80811 21.5067C7.80811 20.4022 8.73835 19.5326 9.8889 19.5326C11.0394 19.5326 11.9697 20.4022 11.9697 21.5067ZM20.1917 23.5042C21.3422 23.5042 22.2724 22.6112 22.2724 21.5067C22.2724 20.4022 21.3422 19.5326 20.1917 19.5326C19.041 19.5326 18.1108 20.4022 18.1108 21.5067C18.1108 22.6112 19.041 23.5042 20.1917 23.5042Z" fill="#888888"/>
</svg>
