<svg width="28" height="22" viewBox="0 0 28 22" fill="none" xmlns="http://www.w3.org/2000/svg">
<path fill-rule="evenodd" clip-rule="evenodd" d="M2.78502 2.07259C5.17872 -0.225367 9.04661 -0.225367 11.4403 2.07259L14.0001 4.53006L16.56 2.07259C18.9537 -0.225367 22.8216 -0.225367 25.2154 2.07259C27.609 4.37054 27.609 8.0837 25.2154 10.3817L14.0001 21.1482L2.78502 10.3817C0.391321 8.0837 0.391321 4.37054 2.78502 2.07259ZM9.67253 3.76964C8.25515 2.40894 5.97018 2.40894 4.55278 3.76964C3.1354 5.13033 3.1354 7.32391 4.55278 8.68466L14.0001 17.7541L23.4476 8.68466C24.865 7.32391 24.865 5.13033 23.4476 3.76964C22.0302 2.40894 19.7452 2.40894 18.3279 3.76964L14.0001 7.92422L9.67253 3.76964Z" fill="#888888"/>
</svg>
