<svg width="28" height="22" viewBox="0 0 28 22" fill="none" xmlns="http://www.w3.org/2000/svg">
<g clip-path="url(#clip0_1_2)">
<path fill-rule="evenodd" clip-rule="evenodd" d="M2.78502 2.57269C5.17872 0.274736 9.04661 0.274736 11.4403 2.57269L14.0001 5.03017L16.56 2.57269C18.9537 0.274736 22.8216 0.274736 25.2154 2.57269C27.609 4.87064 27.609 8.5838 25.2154 10.8818L14.0001 21.6483L2.78502 10.8818C0.391321 8.5838 0.391321 4.87064 2.78502 2.57269ZM9.67253 4.26974C8.25515 2.90905 5.97018 2.90905 4.55278 4.26974C3.1354 5.63043 3.1354 7.82401 4.55278 9.18476L14.0001 18.2542L23.4476 9.18476C24.865 7.82401 24.865 5.63043 23.4476 4.26974C22.0302 2.90905 19.7452 2.90905 18.3279 4.26974L14.0001 8.42432L9.67253 4.26974Z" fill="#F36223"/>
<rect x="8" y="11.1641" width="17.6859" height="10.0935" rx="5.04674" transform="rotate(-39.142 8 11.1641)" fill="#F36223"/>
<rect x="7.54932" width="17.7" height="10.09" rx="5.045" transform="rotate(48.4346 7.54932 0)" fill="#F36223"/>
<path d="M14.0945 22.0754L7.09546 14.6415L20.9512 14.5101L14.0945 22.0754Z" fill="#F36223"/>
</g>
<defs>
<clipPath id="clip0_1_2">
<rect width="28" height="22" fill="white"/>
</clipPath>
</defs>
</svg>
